<?xml version="1.0" encoding="UTF-8" standalone="no"?>
<!DOCTYPE svg PUBLIC "-//W3C//DTD SVG 1.1//EN" "http://www.w3.org/Graphics/SVG/1.1/DTD/svg11.dtd">
<svg width="100%" height="100%" viewBox="0 0 600 600" version="1.1" xmlns="http://www.w3.org/2000/svg" xmlns:xlink="http://www.w3.org/1999/xlink" xml:space="preserve" xmlns:serif="http://www.serif.com/" style="fill-rule:evenodd;clip-rule:evenodd;stroke-linecap:round;stroke-linejoin:round;stroke-miterlimit:2;">
    <g id="layer1" transform="matrix(13.9572,0,0,13.9572,-4320.2,-5505.95)">
        <g transform="matrix(1,0,0,1,-0.144157,-9.83669)">
            <g>
                <path d="M331.087,404.479C325.157,404.578 320.112,406.664 315.95,410.737C311.828,414.998 309.737,420.041 309.679,425.867C309.779,431.794 311.868,436.838 315.945,441C320.134,445.078 325.15,447.166 330.993,447.263C336.924,447.182 341.976,445.11 346.148,441.049C350.283,436.8 352.388,431.763 352.462,425.938C352.379,420.009 350.305,414.959 346.24,410.787C342.061,406.696 337.051,404.594 331.21,404.481" style="fill:rgb(0,98,86);fill-rule:nonzero;"/>
            </g>
            <g transform="matrix(0.875911,0,0,0.875911,41.0823,52.846)">
                <path d="M331.087,404.479C325.157,404.578 320.112,406.664 315.95,410.737C311.828,414.998 309.737,420.041 309.679,425.867C309.779,431.794 311.868,436.838 315.945,441C320.134,445.078 325.15,447.166 330.993,447.263C336.924,447.182 341.976,445.11 346.148,441.049C350.283,436.8 352.388,431.763 352.462,425.938C352.379,420.009 350.305,414.959 346.24,410.787C342.061,406.696 337.051,404.594 331.21,404.481" style="fill:none;fill-rule:nonzero;stroke:rgb(38,120,95);stroke-width:1.27px;"/>
            </g>
            <g>
                <path d="M338.493,412.202C335.231,420.743 332.546,426.447 330.437,429.314C328.388,432.387 325.065,435.261 320.468,437.936L320.085,440.999L330.126,447.234L330.129,447.234C330.415,447.248 330.703,447.258 330.993,447.263C336.924,447.182 341.976,445.11 346.148,441.049C350.283,436.8 352.388,431.763 352.462,425.938C352.415,422.557 351.72,419.461 350.377,416.652L350.381,416.652L338.515,412.284L338.493,412.202Z" style="fill-opacity:0.07;fill-rule:nonzero;"/>
            </g>
            <g>
                <g>
                    <path d="M319.436,423.785L320.068,440.411L320.112,440.409L342.944,439.541L342.332,423.435L342.313,422.915L319.48,423.783" style="fill:rgb(255,173,83);fill-rule:nonzero;"/>
                </g>
                <g>
                    <g>
                        <path d="M338.251,412.419C338.274,412.241 338.286,412.145 338.284,412.143C338.267,412.133 336.187,411.831 333.658,411.471L329.06,410.815L327.72,420.071L326.383,429.328L331.018,429.994L335.652,430.659L336.98,421.412C337.6,417.089 338.118,413.429 338.251,412.419ZM335.991,415.117L335.128,421.135L334.264,427.152L335.991,415.117ZM330.038,420.446L330.04,420.428L330.038,420.446ZM330.428,414.337L328.702,426.361L329.565,420.348L330.428,414.337Z" style="fill:rgb(38,120,95);fill-rule:nonzero;"/>
                    </g>
                    <g>
                        <path d="M338.567,412.056C338.549,412.046 336.47,411.744 333.94,411.385L329.343,410.729L328.003,419.985L326.666,429.242L331.3,429.907L335.935,430.573L337.262,421.326C337.993,416.239 338.58,412.07 338.567,412.056ZM334.326,427.076C333.873,427.094 333.522,427.271 333.24,427.624C333.139,427.753 333.062,427.893 333.024,428.02C332.997,428.13 332.953,428.226 332.933,428.234C332.856,428.269 330.231,427.892 330.201,427.842C330.189,427.818 330.177,427.714 330.177,427.612C330.182,427.37 330.024,426.965 329.852,426.766C329.673,426.567 329.413,426.397 329.177,426.329L328.984,426.275L329.847,420.261L330.71,414.251L330.962,414.238C331.099,414.231 331.277,414.204 331.356,414.177C331.727,414.049 332.118,413.67 332.223,413.333C332.246,413.253 332.279,413.152 332.297,413.109L332.324,413.026L333.696,413.223C335.23,413.443 335.08,413.387 335.08,413.724C335.083,413.967 335.19,414.251 335.368,414.488C335.559,414.743 335.918,414.98 336.166,415.015L336.274,415.031L335.41,421.048L334.546,427.066L334.326,427.076Z" style="fill:rgb(38,120,95);fill-rule:nonzero;"/>
                    </g>
                    <g>
                        <path d="M334.964,420.575C334.945,420.149 334.792,419.688 334.551,419.339C334.315,419.003 334.073,418.79 333.702,418.586C333.446,418.443 333.384,418.426 332.957,418.365C332.542,418.306 332.463,418.306 332.201,418.363C331.632,418.481 331.159,418.765 330.82,419.182C330.176,419.972 330.126,421.141 330.696,421.965C331.364,422.927 332.583,423.265 333.623,422.771C334.456,422.376 335,421.481 334.964,420.575Z" style="fill:white;fill-rule:nonzero;"/>
                        <g transform="matrix(0.526246,0,0,0.526246,157.565,198.361)">
                            <path d="M334.964,420.575C334.945,420.149 334.792,419.688 334.551,419.339C334.315,419.003 334.073,418.79 333.702,418.586C333.446,418.443 333.384,418.426 332.957,418.365C332.542,418.306 332.463,418.306 332.201,418.363C331.632,418.481 331.159,418.765 330.82,419.182C330.176,419.972 330.126,421.141 330.696,421.965C331.364,422.927 332.583,423.265 333.623,422.771C334.456,422.376 335,421.481 334.964,420.575Z" style="fill-rule:nonzero;"/>
                        </g>
                    </g>
                    <g>
                        <path d="M334.943,420.973C334.834,421.734 334.333,422.434 333.623,422.771C332.583,423.265 331.364,422.927 330.696,421.965C330.365,421.487 330.243,420.892 330.325,420.323C330.384,419.912 330.55,419.513 330.82,419.182C331.159,418.765 331.632,418.481 332.201,418.363C332.463,418.306 332.542,418.306 332.957,418.365C333.384,418.426 333.446,418.443 333.702,418.586C334.073,418.79 334.315,419.003 334.551,419.339C334.792,419.688 334.945,420.149 334.964,420.575C334.969,420.709 334.962,420.842 334.943,420.973ZM336.274,415.031L336.166,415.015C335.918,414.98 335.559,414.743 335.368,414.488C335.19,414.251 335.083,413.967 335.08,413.724C335.08,413.387 335.23,413.443 333.696,413.223L332.324,413.026L332.297,413.109C332.279,413.152 332.246,413.253 332.223,413.333C332.118,413.67 331.727,414.049 331.356,414.177C331.277,414.204 331.099,414.231 330.962,414.238L330.71,414.251L328.984,426.275L329.177,426.329C329.413,426.397 329.673,426.567 329.852,426.766C330.024,426.965 330.182,427.37 330.177,427.612C330.177,427.714 330.189,427.818 330.201,427.842C330.231,427.892 332.856,428.269 332.933,428.234C332.953,428.226 332.997,428.13 333.024,428.02C333.062,427.893 333.139,427.753 333.24,427.624C333.522,427.271 333.873,427.094 334.326,427.076L334.546,427.066L336.274,415.031Z" style="fill:rgb(42,175,134);fill-rule:nonzero;"/>
                    </g>
                </g>
                <g>
                    <g>
                        <path d="M327.935,411.746C327.866,411.58 327.829,411.491 327.826,411.49C327.806,411.49 325.854,412.268 323.484,413.222L319.174,414.952L322.641,423.639L326.112,432.324L330.459,430.583L334.805,428.841L331.331,420.17C329.707,416.116 328.325,412.688 327.935,411.746ZM327.328,415.212L329.588,420.855L331.849,426.499L327.328,415.212ZM324.836,422.804C324.835,422.801 324.833,422.799 324.832,422.796C324.831,422.793 324.83,422.79 324.829,422.787L324.836,422.804ZM322.119,417.319L326.636,428.595L324.377,422.955L322.119,417.319Z" style="fill:rgb(38,120,95);fill-rule:nonzero;"/>
                    </g>
                    <g>
                        <path d="M328.027,411.274C328.007,411.274 326.055,412.052 323.685,413.005L319.375,414.736L322.843,423.422L326.314,432.107L330.66,430.366L335.006,428.625L331.532,419.953C329.621,415.183 328.045,411.279 328.027,411.274ZM331.864,426.402C331.481,426.644 331.266,426.972 331.198,427.419C331.175,427.582 331.178,427.742 331.209,427.87C331.241,427.979 331.251,428.084 331.238,428.101C331.188,428.17 328.726,429.156 328.675,429.128C328.653,429.112 328.591,429.028 328.539,428.94C328.422,428.729 328.083,428.457 327.835,428.37C327.58,428.287 327.27,428.27 327.032,428.329L326.838,428.379L324.578,422.739L322.321,417.103L322.532,416.966C322.648,416.891 322.788,416.779 322.843,416.716C323.1,416.419 323.249,415.896 323.172,415.551C323.152,415.471 323.13,415.367 323.124,415.32L323.106,415.235L324.392,414.72C325.832,414.143 325.673,414.17 325.842,414.462C325.966,414.67 326.2,414.863 326.473,414.979C326.765,415.104 327.195,415.13 327.428,415.037L327.529,414.996L329.79,420.639L332.05,426.283L331.864,426.402Z" style="fill:rgb(38,120,95);fill-rule:nonzero;"/>
                    </g>
                    <g>
                        <path d="M329.167,420.453C328.938,420.093 328.574,419.77 328.191,419.589C327.819,419.415 327.503,419.352 327.079,419.361C326.786,419.365 326.724,419.382 326.324,419.542C325.934,419.698 325.866,419.738 325.668,419.918C325.234,420.306 324.967,420.788 324.881,421.319C324.719,422.324 325.26,423.362 326.165,423.79C327.225,424.289 328.45,423.973 329.103,423.025C329.627,422.266 329.651,421.219 329.167,420.453Z" style="fill:white;fill-rule:nonzero;"/>
                        <g transform="matrix(0.526246,0,0,0.526246,152.01,199.423)">
                            <path d="M334.964,420.575C334.945,420.149 334.792,419.688 334.551,419.339C334.315,419.003 334.073,418.79 333.702,418.586C333.446,418.443 333.384,418.426 332.957,418.365C332.542,418.306 332.463,418.306 332.201,418.363C331.632,418.481 331.159,418.765 330.82,419.182C330.176,419.972 330.126,421.141 330.696,421.965C331.364,422.927 332.583,423.265 333.623,422.771C334.456,422.376 335,421.481 334.964,420.575Z" style="fill-rule:nonzero;"/>
                        </g>
                    </g>
                    <g>
                        <path d="M329.347,420.808C329.633,421.521 329.55,422.378 329.103,423.025C328.45,423.973 327.225,424.289 326.165,423.79C325.64,423.541 325.237,423.088 325.023,422.554C324.869,422.168 324.813,421.74 324.881,421.319C324.967,420.788 325.234,420.306 325.668,419.918C325.866,419.738 325.934,419.698 326.324,419.542C326.724,419.382 326.786,419.365 327.079,419.361C327.503,419.352 327.819,419.415 328.191,419.589C328.574,419.77 328.938,420.093 329.167,420.453C329.238,420.566 329.298,420.685 329.347,420.808ZM327.529,414.996L327.428,415.037C327.195,415.13 326.765,415.104 326.473,414.979C326.2,414.863 325.966,414.67 325.842,414.462C325.673,414.17 325.832,414.143 324.392,414.72L323.106,415.235L323.124,415.32C323.13,415.367 323.152,415.471 323.172,415.551C323.249,415.896 323.1,416.419 322.843,416.716C322.788,416.779 322.648,416.891 322.532,416.966L322.321,417.103L326.838,428.379L327.032,428.329C327.27,428.27 327.58,428.287 327.835,428.37C328.083,428.457 328.422,428.729 328.539,428.94C328.591,429.028 328.653,429.112 328.675,429.128C328.726,429.156 331.188,428.17 331.238,428.101C331.251,428.084 331.241,427.979 331.209,427.87C331.178,427.742 331.175,427.582 331.198,427.419C331.266,426.972 331.481,426.644 331.864,426.402L332.05,426.283L327.529,414.996Z" style="fill:rgb(42,175,134);fill-rule:nonzero;"/>
                    </g>
                </g>
                <g>
                    <path d="M319.459,424.387L320.091,441.014L320.135,441.012L342.967,440.144L342.336,423.518L319.459,424.387" style="fill:rgb(255,173,83);fill-rule:nonzero;"/>
                </g>
                <g>
                    <path d="M321.893,426.219L322.379,439.002L322.415,439.001L340.533,438.313L340.047,425.529L321.893,426.219" style="fill:rgb(201,122,35);fill-opacity:0.16;fill-rule:nonzero;"/>
                </g>
                <g>
                    <path d="M338.106,429.619L338.255,433.528L338.263,433.527L342.677,433.36L342.528,429.451L338.106,429.619" style="fill:rgb(201,122,35);fill-rule:nonzero;"/>
                </g>
                <g>
                    <path d="M339.598,430.179C339.269,430.205 338.993,430.34 338.772,430.584C338.558,430.831 338.459,431.122 338.474,431.456C338.499,431.785 338.634,432.061 338.879,432.283C339.126,432.496 339.416,432.595 339.748,432.581C340.078,432.555 340.354,432.421 340.575,432.177C340.789,431.93 340.889,431.639 340.875,431.305C340.85,430.976 340.715,430.701 340.471,430.478C340.224,430.265 339.934,430.165 339.602,430.179" style="fill:white;fill-rule:nonzero;"/>
                </g>
                <g>
                    <path d="M319.436,423.785L320.068,440.411L320.091,441.014L321.453,440.962L320.799,423.733L319.436,423.785Z" style="fill:rgb(74,39,0);fill-opacity:0.12;fill-rule:nonzero;"/>
                </g>
                <g>
                    <path d="M338.212,431.505L338.289,433.541L339.34,433.501L342.847,433.368L342.77,431.332L338.212,431.505Z" style="fill:rgb(74,39,0);fill-opacity:0.07;fill-rule:nonzero;"/>
                </g>
            </g>
        </g>
        <g transform="matrix(0.0224999,-0.00831812,0.00831812,0.0224999,323.392,414.274)">
            <path d="M370.78,439.363C370.78,439.363 355.129,492.509 327.376,524.103C327.376,524.103 343.024,525.877 353.358,525.581C353.358,525.581 325.898,574.595 291.944,574.595C257.99,574.595 242.362,527.056 242.362,495.759L242.362,334.237L316.351,334.237L340.858,294.301L239.31,294.301L239.31,260.719C256.616,252.283 268.543,234.525 268.543,213.976C268.543,185.27 245.272,162 216.567,162C187.861,162 164.59,185.27 164.59,213.976C164.59,234.525 176.518,252.283 193.823,260.719L193.823,294.301L92.276,294.301L116.781,334.237L190.772,334.237L190.772,495.759C190.772,527.056 175.145,574.595 141.19,574.595C107.235,574.595 79.775,525.581 79.775,525.581C90.11,525.876 105.758,524.103 105.758,524.103C78.004,492.509 62.355,439.363 62.355,439.363C20.131,488.081 23.38,551.859 23.38,551.859C31.795,545.215 45.525,535.914 45.525,535.914C68.998,607.663 126.574,633.794 162.006,647.081C197.438,660.368 216.567,702 216.567,702C216.567,702 235.696,660.368 271.128,647.081C306.56,633.794 364.136,607.663 387.609,535.914C387.609,535.914 401.339,545.215 409.754,551.859C409.754,551.859 413.003,488.081 370.78,439.363ZM216.567,239.771C202.321,239.771 190.773,228.223 190.773,213.976C190.773,199.73 202.321,188.181 216.567,188.181C230.813,188.181 242.362,199.73 242.362,213.976C242.362,228.223 230.813,239.771 216.567,239.771Z" style="fill:white;fill-rule:nonzero;"/>
        </g>
    </g>
</svg>
